<svg xmlns="http://www.w3.org/2000/svg" xmlns:xlink="http://www.w3.org/1999/xlink" version="1.1" x="0px" y="0px" viewBox="0 0 100 100" enable-background="new 0 0 100 100" xml:space="preserve"><g><path d="M4.94,22.538h90.12C47.327-3.094,4.94,22.538,4.94,22.538z"></path><path d="M5.06,24.242l2.684,5.683v58.929h2.205v-6.993h18.24v3.936h2.205v-3.936h18.666v3.936h2.205v-3.936H69.93v3.936h2.205   v-3.936h18.24v6.993h2.205V29.89l2.262-5.648H5.06z M92.573,26.067l-2.064,3.079H72.135v-3.001H69.93v3.001H51.264v-3.001h-2.205   v3.001H30.393v-3.001h-2.205v3.001H9.826l-2.3-3.079H92.573z M30.393,79.656v-4.355h18.666v4.355H30.393z M51.264,79.656v-4.355   H69.93v4.355H51.264z M72.135,79.656v-4.355H88.65v-2.778H11.637v2.778h16.551v4.355H9.948V31.351h18.24v27.74h2.205v-27.74h18.666   v27.74h2.205v-27.74H69.93v27.74h2.205v-27.74h18.24v48.305H72.135z"></path><polygon points="11.637,60.855 11.637,66.064 11.637,69.569 11.637,71.273 88.65,71.273 88.65,69.569 88.65,66.064 88.65,60.855     "></polygon></g></svg>